<mxfile host="app.diagrams.net" agent="Mozilla/5.0 (Windows NT 10.0; Win64; x64) AppleWebKit/537.36 (KHTML, like Gecko) Chrome/128.0.0.0 Safari/537.36" version="24.7.12">
  <diagram name="Страница — 1" id="RyoC-bndDXfVd0UZjaUd">
    <mxGraphModel dx="5196" dy="3152" grid="1" gridSize="10" guides="1" tooltips="1" connect="1" arrows="1" fold="1" page="1" pageScale="1" pageWidth="3300" pageHeight="2339" math="0" shadow="0">
      <root>
        <mxCell id="0" />
        <mxCell id="1" parent="0" />
        <mxCell id="3FrmJtOBqdGyqvYfmk5J-24" value="" style="ellipse;shape=cloud;whiteSpace=wrap;html=1;" parent="1" vertex="1">
          <mxGeometry x="-10" y="20" width="350" height="210" as="geometry" />
        </mxCell>
        <mxCell id="3FrmJtOBqdGyqvYfmk5J-2" value="&lt;font style=&quot;font-size: 47px;&quot;&gt;Принцип работы&lt;/font&gt;" style="text;html=1;align=center;verticalAlign=middle;whiteSpace=wrap;rounded=0;" parent="1" vertex="1">
          <mxGeometry x="412.5" y="20" width="455" height="30" as="geometry" />
        </mxCell>
        <mxCell id="3FrmJtOBqdGyqvYfmk5J-4" value="&lt;font style=&quot;font-size: 18px;&quot;&gt;mail.ru&lt;/font&gt;" style="text;html=1;align=center;verticalAlign=middle;whiteSpace=wrap;rounded=0;" parent="1" vertex="1">
          <mxGeometry x="60" y="90" width="240" height="70" as="geometry" />
        </mxCell>
        <mxCell id="3FrmJtOBqdGyqvYfmk5J-7" style="edgeStyle=orthogonalEdgeStyle;rounded=0;orthogonalLoop=1;jettySize=auto;html=1;" parent="1" source="3FrmJtOBqdGyqvYfmk5J-5" target="3FrmJtOBqdGyqvYfmk5J-24" edge="1">
          <mxGeometry relative="1" as="geometry">
            <mxPoint x="370" y="160" as="targetPoint" />
            <Array as="points">
              <mxPoint x="371" y="410" />
              <mxPoint x="371" y="160" />
            </Array>
          </mxGeometry>
        </mxCell>
        <mxCell id="3FrmJtOBqdGyqvYfmk5J-5" value="" style="shape=parallelogram;perimeter=parallelogramPerimeter;whiteSpace=wrap;html=1;fixedSize=1;" parent="1" vertex="1">
          <mxGeometry x="410" y="290" width="460" height="240" as="geometry" />
        </mxCell>
        <mxCell id="3FrmJtOBqdGyqvYfmk5J-6" value="&lt;font style=&quot;font-size: 18px;&quot;&gt;Django&lt;/font&gt;" style="text;html=1;align=center;verticalAlign=middle;whiteSpace=wrap;rounded=0;strokeWidth=18;" parent="1" vertex="1">
          <mxGeometry x="550" y="365" width="200" height="90" as="geometry" />
        </mxCell>
        <mxCell id="3FrmJtOBqdGyqvYfmk5J-9" value="" style="rounded=0;whiteSpace=wrap;html=1;" parent="1" vertex="1">
          <mxGeometry x="460" y="760" width="310" height="155" as="geometry" />
        </mxCell>
        <mxCell id="3FrmJtOBqdGyqvYfmk5J-10" value="" style="shape=parallelogram;perimeter=parallelogramPerimeter;whiteSpace=wrap;html=1;fixedSize=1;direction=west;rotation=-180;" parent="1" vertex="1">
          <mxGeometry x="440" y="915" width="330" height="100" as="geometry" />
        </mxCell>
        <mxCell id="3FrmJtOBqdGyqvYfmk5J-13" value="&lt;font style=&quot;font-size: 18px;&quot;&gt;Таблица с сообщениями&lt;/font&gt;" style="text;html=1;align=center;verticalAlign=middle;whiteSpace=wrap;rounded=0;" parent="1" vertex="1">
          <mxGeometry x="500" y="782.5" width="230" height="110" as="geometry" />
        </mxCell>
        <mxCell id="3FrmJtOBqdGyqvYfmk5J-14" value="" style="shape=cylinder3;whiteSpace=wrap;html=1;boundedLbl=1;backgroundOutline=1;size=15;" parent="1" vertex="1">
          <mxGeometry x="1030" y="40" width="160" height="190" as="geometry" />
        </mxCell>
        <mxCell id="3FrmJtOBqdGyqvYfmk5J-15" style="edgeStyle=orthogonalEdgeStyle;rounded=0;orthogonalLoop=1;jettySize=auto;html=1;entryX=0.5;entryY=1;entryDx=0;entryDy=0;entryPerimeter=0;" parent="1" source="3FrmJtOBqdGyqvYfmk5J-5" target="3FrmJtOBqdGyqvYfmk5J-14" edge="1">
          <mxGeometry relative="1" as="geometry" />
        </mxCell>
        <mxCell id="3FrmJtOBqdGyqvYfmk5J-16" value="&lt;font style=&quot;font-size: 18px;&quot;&gt;PosgreSQL&lt;/font&gt;" style="text;html=1;align=center;verticalAlign=middle;whiteSpace=wrap;rounded=0;" parent="1" vertex="1">
          <mxGeometry x="1030" y="90" width="160" height="70" as="geometry" />
        </mxCell>
        <mxCell id="3FrmJtOBqdGyqvYfmk5J-18" style="edgeStyle=orthogonalEdgeStyle;rounded=0;orthogonalLoop=1;jettySize=auto;html=1;exitX=0.25;exitY=1;exitDx=0;exitDy=0;entryX=0.289;entryY=0.02;entryDx=0;entryDy=0;entryPerimeter=0;" parent="1" source="3FrmJtOBqdGyqvYfmk5J-5" target="3FrmJtOBqdGyqvYfmk5J-9" edge="1">
          <mxGeometry relative="1" as="geometry" />
        </mxCell>
        <mxCell id="3FrmJtOBqdGyqvYfmk5J-19" value="&lt;font color=&quot;#ff7575&quot; style=&quot;font-size: 37px;&quot;&gt;wsgi !!!&lt;/font&gt;" style="text;html=1;align=center;verticalAlign=middle;whiteSpace=wrap;rounded=0;" parent="1" vertex="1">
          <mxGeometry x="520" y="540" width="220" height="120" as="geometry" />
        </mxCell>
        <mxCell id="3FrmJtOBqdGyqvYfmk5J-23" style="edgeStyle=orthogonalEdgeStyle;rounded=0;orthogonalLoop=1;jettySize=auto;html=1;exitX=0.75;exitY=0;exitDx=0;exitDy=0;entryX=0.689;entryY=1.013;entryDx=0;entryDy=0;entryPerimeter=0;" parent="1" source="3FrmJtOBqdGyqvYfmk5J-9" target="3FrmJtOBqdGyqvYfmk5J-5" edge="1">
          <mxGeometry relative="1" as="geometry" />
        </mxCell>
        <mxCell id="3FrmJtOBqdGyqvYfmk5J-25" value="Actor" style="shape=umlActor;verticalLabelPosition=bottom;verticalAlign=top;html=1;outlineConnect=0;" parent="1" vertex="1">
          <mxGeometry x="300" y="892.5" width="173.75" height="347.5" as="geometry" />
        </mxCell>
        <mxCell id="S3M58khVTUGFdESg48iC-5" value="User" style="swimlane;fontStyle=0;childLayout=stackLayout;horizontal=1;startSize=30;horizontalStack=0;resizeParent=1;resizeParentMax=0;resizeLast=0;collapsible=1;marginBottom=0;whiteSpace=wrap;html=1;" vertex="1" parent="1">
          <mxGeometry x="1810" y="730" width="310" height="90" as="geometry" />
        </mxCell>
        <mxCell id="S3M58khVTUGFdESg48iC-6" value="username" style="text;strokeColor=none;fillColor=none;align=left;verticalAlign=middle;spacingLeft=4;spacingRight=4;overflow=hidden;points=[[0,0.5],[1,0.5]];portConstraint=eastwest;rotatable=0;whiteSpace=wrap;html=1;" vertex="1" parent="S3M58khVTUGFdESg48iC-5">
          <mxGeometry y="30" width="310" height="30" as="geometry" />
        </mxCell>
        <mxCell id="S3M58khVTUGFdESg48iC-7" value="password" style="text;strokeColor=none;fillColor=none;align=left;verticalAlign=middle;spacingLeft=4;spacingRight=4;overflow=hidden;points=[[0,0.5],[1,0.5]];portConstraint=eastwest;rotatable=0;whiteSpace=wrap;html=1;" vertex="1" parent="S3M58khVTUGFdESg48iC-5">
          <mxGeometry y="60" width="310" height="30" as="geometry" />
        </mxCell>
        <mxCell id="S3M58khVTUGFdESg48iC-9" value="Profile" style="swimlane;fontStyle=0;childLayout=stackLayout;horizontal=1;startSize=30;horizontalStack=0;resizeParent=1;resizeParentMax=0;resizeLast=0;collapsible=1;marginBottom=0;whiteSpace=wrap;html=1;" vertex="1" parent="1">
          <mxGeometry x="2410" y="730" width="460" height="120" as="geometry" />
        </mxCell>
        <mxCell id="S3M58khVTUGFdESg48iC-10" value="user" style="text;strokeColor=none;fillColor=none;align=left;verticalAlign=middle;spacingLeft=4;spacingRight=4;overflow=hidden;points=[[0,0.5],[1,0.5]];portConstraint=eastwest;rotatable=0;whiteSpace=wrap;html=1;" vertex="1" parent="S3M58khVTUGFdESg48iC-9">
          <mxGeometry y="30" width="460" height="30" as="geometry" />
        </mxCell>
        <mxCell id="S3M58khVTUGFdESg48iC-11" value="mail_login" style="text;strokeColor=none;fillColor=none;align=left;verticalAlign=middle;spacingLeft=4;spacingRight=4;overflow=hidden;points=[[0,0.5],[1,0.5]];portConstraint=eastwest;rotatable=0;whiteSpace=wrap;html=1;" vertex="1" parent="S3M58khVTUGFdESg48iC-9">
          <mxGeometry y="60" width="460" height="30" as="geometry" />
        </mxCell>
        <mxCell id="S3M58khVTUGFdESg48iC-12" value="mail_password" style="text;strokeColor=none;fillColor=none;align=left;verticalAlign=middle;spacingLeft=4;spacingRight=4;overflow=hidden;points=[[0,0.5],[1,0.5]];portConstraint=eastwest;rotatable=0;whiteSpace=wrap;html=1;" vertex="1" parent="S3M58khVTUGFdESg48iC-9">
          <mxGeometry y="90" width="460" height="30" as="geometry" />
        </mxCell>
        <mxCell id="S3M58khVTUGFdESg48iC-17" style="edgeStyle=orthogonalEdgeStyle;rounded=0;orthogonalLoop=1;jettySize=auto;html=1;entryX=0.455;entryY=1.011;entryDx=0;entryDy=0;entryPerimeter=0;" edge="1" parent="1" source="S3M58khVTUGFdESg48iC-13">
          <mxGeometry relative="1" as="geometry">
            <mxPoint x="1951.050000000001" y="850.3300000000002" as="targetPoint" />
          </mxGeometry>
        </mxCell>
        <mxCell id="S3M58khVTUGFdESg48iC-13" value="Message" style="swimlane;fontStyle=0;childLayout=stackLayout;horizontal=1;startSize=30;horizontalStack=0;resizeParent=1;resizeParentMax=0;resizeLast=0;collapsible=1;marginBottom=0;whiteSpace=wrap;html=1;" vertex="1" parent="1">
          <mxGeometry x="2060" y="1130" width="580" height="210" as="geometry" />
        </mxCell>
        <mxCell id="S3M58khVTUGFdESg48iC-14" value="user" style="text;strokeColor=none;fillColor=none;align=left;verticalAlign=middle;spacingLeft=4;spacingRight=4;overflow=hidden;points=[[0,0.5],[1,0.5]];portConstraint=eastwest;rotatable=0;whiteSpace=wrap;html=1;" vertex="1" parent="S3M58khVTUGFdESg48iC-13">
          <mxGeometry y="30" width="580" height="30" as="geometry" />
        </mxCell>
        <mxCell id="S3M58khVTUGFdESg48iC-15" value="author" style="text;strokeColor=none;fillColor=none;align=left;verticalAlign=middle;spacingLeft=4;spacingRight=4;overflow=hidden;points=[[0,0.5],[1,0.5]];portConstraint=eastwest;rotatable=0;whiteSpace=wrap;html=1;" vertex="1" parent="S3M58khVTUGFdESg48iC-13">
          <mxGeometry y="60" width="580" height="30" as="geometry" />
        </mxCell>
        <mxCell id="S3M58khVTUGFdESg48iC-16" value="topic" style="text;strokeColor=none;fillColor=none;align=left;verticalAlign=middle;spacingLeft=4;spacingRight=4;overflow=hidden;points=[[0,0.5],[1,0.5]];portConstraint=eastwest;rotatable=0;whiteSpace=wrap;html=1;" vertex="1" parent="S3M58khVTUGFdESg48iC-13">
          <mxGeometry y="90" width="580" height="30" as="geometry" />
        </mxCell>
        <mxCell id="S3M58khVTUGFdESg48iC-22" value="date_send" style="text;strokeColor=none;fillColor=none;align=left;verticalAlign=middle;spacingLeft=4;spacingRight=4;overflow=hidden;points=[[0,0.5],[1,0.5]];portConstraint=eastwest;rotatable=0;whiteSpace=wrap;html=1;" vertex="1" parent="S3M58khVTUGFdESg48iC-13">
          <mxGeometry y="120" width="580" height="30" as="geometry" />
        </mxCell>
        <mxCell id="S3M58khVTUGFdESg48iC-23" value="date_added" style="text;strokeColor=none;fillColor=none;align=left;verticalAlign=middle;spacingLeft=4;spacingRight=4;overflow=hidden;points=[[0,0.5],[1,0.5]];portConstraint=eastwest;rotatable=0;whiteSpace=wrap;html=1;" vertex="1" parent="S3M58khVTUGFdESg48iC-13">
          <mxGeometry y="150" width="580" height="30" as="geometry" />
        </mxCell>
        <mxCell id="S3M58khVTUGFdESg48iC-24" value="text" style="text;strokeColor=none;fillColor=none;align=left;verticalAlign=middle;spacingLeft=4;spacingRight=4;overflow=hidden;points=[[0,0.5],[1,0.5]];portConstraint=eastwest;rotatable=0;whiteSpace=wrap;html=1;" vertex="1" parent="S3M58khVTUGFdESg48iC-13">
          <mxGeometry y="180" width="580" height="30" as="geometry" />
        </mxCell>
        <mxCell id="S3M58khVTUGFdESg48iC-18" style="edgeStyle=orthogonalEdgeStyle;rounded=0;orthogonalLoop=1;jettySize=auto;html=1;entryX=0.996;entryY=0.156;entryDx=0;entryDy=0;entryPerimeter=0;" edge="1" parent="1" source="S3M58khVTUGFdESg48iC-10" target="S3M58khVTUGFdESg48iC-7">
          <mxGeometry relative="1" as="geometry" />
        </mxCell>
        <mxCell id="S3M58khVTUGFdESg48iC-19" style="edgeStyle=orthogonalEdgeStyle;rounded=0;orthogonalLoop=1;jettySize=auto;html=1;entryX=0.164;entryY=0.006;entryDx=0;entryDy=0;entryPerimeter=0;" edge="1" parent="1" source="S3M58khVTUGFdESg48iC-6" target="S3M58khVTUGFdESg48iC-9">
          <mxGeometry relative="1" as="geometry" />
        </mxCell>
        <mxCell id="S3M58khVTUGFdESg48iC-20" value="One to One" style="text;html=1;align=center;verticalAlign=middle;whiteSpace=wrap;rounded=0;" vertex="1" parent="1">
          <mxGeometry x="2240" y="800" width="60" height="30" as="geometry" />
        </mxCell>
        <mxCell id="S3M58khVTUGFdESg48iC-21" value="One to Many" style="text;html=1;align=center;verticalAlign=middle;whiteSpace=wrap;rounded=0;" vertex="1" parent="1">
          <mxGeometry x="1950" y="970" width="60" height="30" as="geometry" />
        </mxCell>
        <mxCell id="S3M58khVTUGFdESg48iC-25" value="&lt;font style=&quot;font-size: 51px;&quot;&gt;БД&lt;/font&gt;" style="text;html=1;align=center;verticalAlign=middle;whiteSpace=wrap;rounded=0;" vertex="1" parent="1">
          <mxGeometry x="1860" y="440" width="310" height="60" as="geometry" />
        </mxCell>
      </root>
    </mxGraphModel>
  </diagram>
</mxfile>
